<svg width="193" height="114" viewBox="0 0 193 114" fill="none" xmlns="http://www.w3.org/2000/svg">
<g clip-path="url(#clip0_32_92)">
<rect width="193" height="114" fill="none"/>
<g filter="url(#filter0_d_32_92)">
<rect x="4" y="16" width="186" height="32" rx="6" fill="#F0F0F0"/>
<rect x="4.5" y="16.5" width="185" height="31" rx="5.5" stroke="#FF9811"/>
</g>
<path d="M18.9141 26.041L14.207 39H12.2832L17.7031 24.7812H18.9434L18.9141 26.041ZM22.8594 39L18.1426 26.041L18.1133 24.7812H19.3535L24.793 39H22.8594ZM22.6152 33.7363V35.2793H14.627V33.7363H22.6152ZM28.3867 24V39H26.5703V24H28.3867ZM33.9824 39H32.1758V27.3203C32.1758 26.5586 32.3125 25.9173 32.5859 25.3965C32.8659 24.8691 33.2663 24.472 33.7871 24.2051C34.3079 23.9316 34.9264 23.7949 35.6426 23.7949C35.8509 23.7949 36.0592 23.8079 36.2676 23.834C36.4824 23.86 36.6908 23.8991 36.8926 23.9512L36.7949 25.4258C36.6582 25.3932 36.502 25.3704 36.3262 25.3574C36.1569 25.3444 35.9876 25.3379 35.8184 25.3379C35.4342 25.3379 35.1022 25.416 34.8223 25.5723C34.5488 25.722 34.3405 25.9434 34.1973 26.2363C34.054 26.5293 33.9824 26.8906 33.9824 27.3203V39ZM36.2285 28.4336V29.8203H30.5059V28.4336H36.2285ZM40.0469 30.0938V39H38.2402V28.4336H39.998L40.0469 30.0938ZM43.3477 28.375L43.3379 30.0547C43.1882 30.0221 43.0449 30.0026 42.9082 29.9961C42.778 29.9831 42.6283 29.9766 42.459 29.9766C42.0423 29.9766 41.6745 30.0417 41.3555 30.1719C41.0365 30.3021 40.7663 30.4844 40.5449 30.7188C40.3236 30.9531 40.1478 31.2331 40.0176 31.5586C39.8939 31.8776 39.8125 32.2292 39.7734 32.6133L39.2656 32.9062C39.2656 32.2682 39.3275 31.6693 39.4512 31.1094C39.5814 30.5495 39.7799 30.0547 40.0469 29.625C40.3138 29.1888 40.6523 28.8503 41.0625 28.6094C41.4792 28.362 41.974 28.2383 42.5469 28.2383C42.6771 28.2383 42.8268 28.2546 42.9961 28.2871C43.1654 28.3132 43.2826 28.3424 43.3477 28.375ZM49.207 39.1953C48.4714 39.1953 47.804 39.0716 47.2051 38.8242C46.6126 38.5703 46.1016 38.2155 45.6719 37.7598C45.2487 37.304 44.9232 36.7637 44.6953 36.1387C44.4674 35.5137 44.3535 34.8301 44.3535 34.0879V33.6777C44.3535 32.8184 44.4805 32.0534 44.7344 31.3828C44.9883 30.7057 45.3333 30.1328 45.7695 29.6641C46.2057 29.1953 46.7005 28.8405 47.2539 28.5996C47.8073 28.3587 48.3802 28.2383 48.9727 28.2383C49.7279 28.2383 50.3789 28.3685 50.9258 28.6289C51.4792 28.8893 51.9316 29.2539 52.2832 29.7227C52.6348 30.1849 52.8952 30.7318 53.0645 31.3633C53.2337 31.9883 53.3184 32.6719 53.3184 33.4141V34.2246H45.4277V32.75H51.5117V32.6133C51.4857 32.1445 51.388 31.6888 51.2188 31.2461C51.056 30.8034 50.7956 30.4388 50.4375 30.1523C50.0794 29.8659 49.5911 29.7227 48.9727 29.7227C48.5625 29.7227 48.1849 29.8105 47.8398 29.9863C47.4948 30.1556 47.1986 30.4095 46.9512 30.748C46.7038 31.0866 46.5117 31.5 46.375 31.9883C46.2383 32.4766 46.1699 33.0397 46.1699 33.6777V34.0879C46.1699 34.5892 46.2383 35.0612 46.375 35.5039C46.5182 35.9401 46.7233 36.3242 46.9902 36.6562C47.2637 36.9883 47.5924 37.2487 47.9766 37.4375C48.3672 37.6263 48.8099 37.7207 49.3047 37.7207C49.9427 37.7207 50.4831 37.5905 50.9258 37.3301C51.3685 37.0697 51.7559 36.7214 52.0879 36.2852L53.1816 37.1543C52.9538 37.4993 52.6641 37.8281 52.3125 38.1406C51.9609 38.4531 51.528 38.707 51.0137 38.9023C50.5059 39.0977 49.9036 39.1953 49.207 39.1953ZM62.0879 36.9492V24H63.9043V39H62.2441L62.0879 36.9492ZM54.9785 33.834V33.6289C54.9785 32.8216 55.0762 32.0892 55.2715 31.4316C55.4733 30.7676 55.7565 30.1979 56.1211 29.7227C56.4922 29.2474 56.9316 28.8828 57.4395 28.6289C57.9538 28.3685 58.5267 28.2383 59.1582 28.2383C59.8223 28.2383 60.4017 28.3555 60.8965 28.5898C61.3978 28.8177 61.821 29.153 62.166 29.5957C62.5176 30.0319 62.7943 30.5592 62.9961 31.1777C63.1979 31.7962 63.3379 32.4961 63.416 33.2773V34.1758C63.3444 34.9505 63.2044 35.6471 62.9961 36.2656C62.7943 36.8841 62.5176 37.4115 62.166 37.8477C61.821 38.2839 61.3978 38.6191 60.8965 38.8535C60.3952 39.0814 59.8092 39.1953 59.1387 39.1953C58.5202 39.1953 57.9538 39.0618 57.4395 38.7949C56.9316 38.528 56.4922 38.1536 56.1211 37.6719C55.7565 37.1901 55.4733 36.6237 55.2715 35.9727C55.0762 35.3151 54.9785 34.6022 54.9785 33.834ZM56.7949 33.6289V33.834C56.7949 34.3613 56.847 34.8561 56.9512 35.3184C57.0618 35.7806 57.2311 36.1875 57.459 36.5391C57.6868 36.8906 57.9766 37.1673 58.3281 37.3691C58.6797 37.5645 59.0996 37.6621 59.5879 37.6621C60.1868 37.6621 60.6784 37.5352 61.0625 37.2812C61.4531 37.0273 61.7656 36.6921 62 36.2754C62.2344 35.8587 62.4167 35.4062 62.5469 34.918V32.5645C62.4688 32.2064 62.3548 31.8613 62.2051 31.5293C62.0618 31.1908 61.873 30.8913 61.6387 30.6309C61.4108 30.3639 61.1276 30.1523 60.7891 29.9961C60.457 29.8398 60.0632 29.7617 59.6074 29.7617C59.1126 29.7617 58.6862 29.8659 58.3281 30.0742C57.9766 30.276 57.6868 30.556 57.459 30.9141C57.2311 31.2656 57.0618 31.6758 56.9512 32.1445C56.847 32.6068 56.7949 33.1016 56.7949 33.6289ZM66.2383 33.834V33.6094C66.2383 32.8477 66.349 32.1413 66.5703 31.4902C66.7917 30.8327 67.1107 30.263 67.5273 29.7812C67.944 29.293 68.4486 28.9154 69.041 28.6484C69.6335 28.375 70.2975 28.2383 71.0332 28.2383C71.7754 28.2383 72.4427 28.375 73.0352 28.6484C73.6341 28.9154 74.1419 29.293 74.5586 29.7812C74.9818 30.263 75.304 30.8327 75.5254 31.4902C75.7467 32.1413 75.8574 32.8477 75.8574 33.6094V33.834C75.8574 34.5957 75.7467 35.3021 75.5254 35.9531C75.304 36.6042 74.9818 37.1738 74.5586 37.6621C74.1419 38.1439 73.6374 38.5215 73.0449 38.7949C72.459 39.0618 71.7949 39.1953 71.0527 39.1953C70.3105 39.1953 69.6432 39.0618 69.0508 38.7949C68.4583 38.5215 67.9505 38.1439 67.5273 37.6621C67.1107 37.1738 66.7917 36.6042 66.5703 35.9531C66.349 35.3021 66.2383 34.5957 66.2383 33.834ZM68.0449 33.6094V33.834C68.0449 34.3613 68.1068 34.8594 68.2305 35.3281C68.3542 35.7904 68.5397 36.2005 68.7871 36.5586C69.041 36.9167 69.3568 37.1999 69.7344 37.4082C70.112 37.61 70.5514 37.7109 71.0527 37.7109C71.5475 37.7109 71.9805 37.61 72.3516 37.4082C72.7292 37.1999 73.0417 36.9167 73.2891 36.5586C73.5365 36.2005 73.722 35.7904 73.8457 35.3281C73.9759 34.8594 74.041 34.3613 74.041 33.834V33.6094C74.041 33.0885 73.9759 32.597 73.8457 32.1348C73.722 31.666 73.5332 31.2526 73.2793 30.8945C73.0319 30.5299 72.7194 30.2435 72.3418 30.0352C71.9707 29.8268 71.5345 29.7227 71.0332 29.7227C70.5384 29.7227 70.1022 29.8268 69.7246 30.0352C69.3535 30.2435 69.041 30.5299 68.7871 30.8945C68.5397 31.2526 68.3542 31.666 68.2305 32.1348C68.1068 32.597 68.0449 33.0885 68.0449 33.6094ZM91.9805 37.4668V39H84.8711V37.4668H91.9805ZM85.2422 24.7812V39H83.3574V24.7812H85.2422ZM95.8281 28.4336V39H94.0117V28.4336H95.8281ZM93.875 25.6309C93.875 25.3379 93.9629 25.0905 94.1387 24.8887C94.321 24.6868 94.5879 24.5859 94.9395 24.5859C95.2845 24.5859 95.5482 24.6868 95.7305 24.8887C95.9193 25.0905 96.0137 25.3379 96.0137 25.6309C96.0137 25.9108 95.9193 26.1517 95.7305 26.3535C95.5482 26.5488 95.2845 26.6465 94.9395 26.6465C94.5879 26.6465 94.321 26.5488 94.1387 26.3535C93.9629 26.1517 93.875 25.9108 93.875 25.6309ZM100.535 30.6895V39H98.7285V28.4336H100.438L100.535 30.6895ZM100.105 33.3164L99.3535 33.2871C99.36 32.5645 99.4674 31.8971 99.6758 31.2852C99.8841 30.6667 100.177 30.1296 100.555 29.6738C100.932 29.2181 101.382 28.8665 101.902 28.6191C102.43 28.3652 103.012 28.2383 103.65 28.2383C104.171 28.2383 104.64 28.3099 105.057 28.4531C105.473 28.5898 105.828 28.8112 106.121 29.1172C106.421 29.4232 106.648 29.8203 106.805 30.3086C106.961 30.7904 107.039 31.3796 107.039 32.0762V39H105.223V32.0566C105.223 31.5033 105.141 31.0605 104.979 30.7285C104.816 30.39 104.578 30.1458 104.266 29.9961C103.953 29.8398 103.569 29.7617 103.113 29.7617C102.664 29.7617 102.254 29.8561 101.883 30.0449C101.518 30.2337 101.202 30.4941 100.936 30.8262C100.675 31.1582 100.47 31.5391 100.32 31.9688C100.177 32.3919 100.105 32.8411 100.105 33.3164ZM116.629 28.4336H118.27V38.7754C118.27 39.7064 118.081 40.5007 117.703 41.1582C117.326 41.8158 116.798 42.3138 116.121 42.6523C115.451 42.9974 114.676 43.1699 113.797 43.1699C113.432 43.1699 113.003 43.1113 112.508 42.9941C112.02 42.8835 111.538 42.6914 111.062 42.418C110.594 42.151 110.2 41.7897 109.881 41.334L110.828 40.2598C111.271 40.7936 111.733 41.1647 112.215 41.373C112.703 41.5814 113.185 41.6855 113.66 41.6855C114.233 41.6855 114.728 41.5781 115.145 41.3633C115.561 41.1484 115.883 40.8294 116.111 40.4062C116.346 39.9896 116.463 39.4753 116.463 38.8633V30.7578L116.629 28.4336ZM109.354 33.834V33.6289C109.354 32.8216 109.448 32.0892 109.637 31.4316C109.832 30.7676 110.109 30.1979 110.467 29.7227C110.831 29.2474 111.271 28.8828 111.785 28.6289C112.299 28.3685 112.879 28.2383 113.523 28.2383C114.188 28.2383 114.767 28.3555 115.262 28.5898C115.763 28.8177 116.186 29.153 116.531 29.5957C116.883 30.0319 117.16 30.5592 117.361 31.1777C117.563 31.7962 117.703 32.4961 117.781 33.2773V34.1758C117.71 34.9505 117.57 35.6471 117.361 36.2656C117.16 36.8841 116.883 37.4115 116.531 37.8477C116.186 38.2839 115.763 38.6191 115.262 38.8535C114.76 39.0814 114.174 39.1953 113.504 39.1953C112.872 39.1953 112.299 39.0618 111.785 38.7949C111.277 38.528 110.841 38.1536 110.477 37.6719C110.112 37.1901 109.832 36.6237 109.637 35.9727C109.448 35.3151 109.354 34.6022 109.354 33.834ZM111.16 33.6289V33.834C111.16 34.3613 111.212 34.8561 111.316 35.3184C111.427 35.7806 111.593 36.1875 111.814 36.5391C112.042 36.8906 112.332 37.1673 112.684 37.3691C113.035 37.5645 113.455 37.6621 113.943 37.6621C114.542 37.6621 115.037 37.5352 115.428 37.2812C115.818 37.0273 116.128 36.6921 116.355 36.2754C116.59 35.8587 116.772 35.4062 116.902 34.918V32.5645C116.831 32.2064 116.72 31.8613 116.57 31.5293C116.427 31.1908 116.238 30.8913 116.004 30.6309C115.776 30.3639 115.493 30.1523 115.154 29.9961C114.816 29.8398 114.419 29.7617 113.963 29.7617C113.468 29.7617 113.042 29.8659 112.684 30.0742C112.332 30.276 112.042 30.556 111.814 30.9141C111.593 31.2656 111.427 31.6758 111.316 32.1445C111.212 32.6068 111.16 33.1016 111.16 33.6289ZM127.479 36.5586V28.4336H129.295V39H127.566L127.479 36.5586ZM127.82 34.332L128.572 34.3125C128.572 35.0156 128.497 35.6667 128.348 36.2656C128.204 36.8581 127.97 37.3724 127.645 37.8086C127.319 38.2448 126.893 38.5866 126.365 38.834C125.838 39.0749 125.197 39.1953 124.441 39.1953C123.927 39.1953 123.455 39.1204 123.025 38.9707C122.602 38.821 122.238 38.5898 121.932 38.2773C121.626 37.9648 121.388 37.5579 121.219 37.0566C121.056 36.5553 120.975 35.9531 120.975 35.25V28.4336H122.781V35.2695C122.781 35.7448 122.833 36.1387 122.938 36.4512C123.048 36.7572 123.195 37.0013 123.377 37.1836C123.566 37.3594 123.774 37.4831 124.002 37.5547C124.236 37.6263 124.477 37.6621 124.725 37.6621C125.493 37.6621 126.102 37.5156 126.551 37.2227C127 36.9232 127.322 36.5228 127.518 36.0215C127.719 35.5137 127.82 34.9505 127.82 34.332ZM134.012 28.4336V39H132.195V28.4336H134.012ZM132.059 25.6309C132.059 25.3379 132.146 25.0905 132.322 24.8887C132.505 24.6868 132.771 24.5859 133.123 24.5859C133.468 24.5859 133.732 24.6868 133.914 24.8887C134.103 25.0905 134.197 25.3379 134.197 25.6309C134.197 25.9108 134.103 26.1517 133.914 26.3535C133.732 26.5488 133.468 26.6465 133.123 26.6465C132.771 26.6465 132.505 26.5488 132.322 26.3535C132.146 26.1517 132.059 25.9108 132.059 25.6309ZM138.719 30.6895V39H136.912V28.4336H138.621L138.719 30.6895ZM138.289 33.3164L137.537 33.2871C137.544 32.5645 137.651 31.8971 137.859 31.2852C138.068 30.6667 138.361 30.1296 138.738 29.6738C139.116 29.2181 139.565 28.8665 140.086 28.6191C140.613 28.3652 141.196 28.2383 141.834 28.2383C142.355 28.2383 142.824 28.3099 143.24 28.4531C143.657 28.5898 144.012 28.8112 144.305 29.1172C144.604 29.4232 144.832 29.8203 144.988 30.3086C145.145 30.7904 145.223 31.3796 145.223 32.0762V39H143.406V32.0566C143.406 31.5033 143.325 31.0605 143.162 30.7285C142.999 30.39 142.762 30.1458 142.449 29.9961C142.137 29.8398 141.753 29.7617 141.297 29.7617C140.848 29.7617 140.438 29.8561 140.066 30.0449C139.702 30.2337 139.386 30.4941 139.119 30.8262C138.859 31.1582 138.654 31.5391 138.504 31.9688C138.361 32.3919 138.289 32.8411 138.289 33.3164ZM149.93 28.4336V39H148.113V28.4336H149.93ZM147.977 25.6309C147.977 25.3379 148.064 25.0905 148.24 24.8887C148.423 24.6868 148.689 24.5859 149.041 24.5859C149.386 24.5859 149.65 24.6868 149.832 24.8887C150.021 25.0905 150.115 25.3379 150.115 25.6309C150.115 25.9108 150.021 26.1517 149.832 26.3535C149.65 26.5488 149.386 26.6465 149.041 26.6465C148.689 26.6465 148.423 26.5488 148.24 26.3535C148.064 26.1517 147.977 25.9108 147.977 25.6309Z" fill="#777777"/>
<path d="M14.0703 1.625V13H12.5547L6.82812 4.22656V13H5.32031V1.625H6.82812L12.5781 10.4219V1.625H14.0703ZM21.5078 11.5547V7.20312C21.5078 6.86979 21.4401 6.58073 21.3047 6.33594C21.1745 6.08594 20.9766 5.89323 20.7109 5.75781C20.4453 5.6224 20.1172 5.55469 19.7266 5.55469C19.362 5.55469 19.0417 5.61719 18.7656 5.74219C18.4948 5.86719 18.2812 6.03125 18.125 6.23438C17.974 6.4375 17.8984 6.65625 17.8984 6.89062H16.4531C16.4531 6.58854 16.5312 6.28906 16.6875 5.99219C16.8438 5.69531 17.0677 5.42708 17.3594 5.1875C17.6562 4.94271 18.0104 4.75 18.4219 4.60938C18.8385 4.46354 19.3021 4.39062 19.8125 4.39062C20.4271 4.39062 20.9688 4.49479 21.4375 4.70312C21.9115 4.91146 22.2812 5.22656 22.5469 5.64844C22.8177 6.0651 22.9531 6.58854 22.9531 7.21875V11.1562C22.9531 11.4375 22.9766 11.737 23.0234 12.0547C23.0755 12.3724 23.151 12.6458 23.25 12.875V13H21.7422C21.6693 12.8333 21.612 12.612 21.5703 12.3359C21.5286 12.0547 21.5078 11.7943 21.5078 11.5547ZM21.7578 7.875L21.7734 8.89062H20.3125C19.901 8.89062 19.5339 8.92448 19.2109 8.99219C18.888 9.05469 18.6172 9.15104 18.3984 9.28125C18.1797 9.41146 18.013 9.57552 17.8984 9.77344C17.7839 9.96615 17.7266 10.1927 17.7266 10.4531C17.7266 10.7188 17.7865 10.9609 17.9062 11.1797C18.026 11.3984 18.2057 11.5729 18.4453 11.7031C18.6901 11.8281 18.9896 11.8906 19.3438 11.8906C19.7865 11.8906 20.1771 11.7969 20.5156 11.6094C20.8542 11.4219 21.1224 11.1927 21.3203 10.9219C21.5234 10.651 21.6328 10.388 21.6484 10.1328L22.2656 10.8281C22.2292 11.0469 22.1302 11.2891 21.9688 11.5547C21.8073 11.8203 21.5911 12.0755 21.3203 12.3203C21.0547 12.5599 20.737 12.7604 20.3672 12.9219C20.0026 13.0781 19.5911 13.1562 19.1328 13.1562C18.5599 13.1562 18.0573 13.0443 17.625 12.8203C17.1979 12.5964 16.8646 12.2969 16.625 11.9219C16.3906 11.5417 16.2734 11.1172 16.2734 10.6484C16.2734 10.1953 16.362 9.79688 16.5391 9.45312C16.7161 9.10417 16.9714 8.8151 17.3047 8.58594C17.638 8.35156 18.0391 8.17448 18.5078 8.05469C18.9766 7.9349 19.5 7.875 20.0781 7.875H21.7578ZM26.6641 6.22656V13H25.2109V4.54688H26.5859L26.6641 6.22656ZM26.3672 8.45312L25.6953 8.42969C25.7005 7.85156 25.776 7.31771 25.9219 6.82812C26.0677 6.33333 26.2839 5.90365 26.5703 5.53906C26.8568 5.17448 27.2135 4.89323 27.6406 4.69531C28.0677 4.49219 28.5625 4.39062 29.125 4.39062C29.5208 4.39062 29.8854 4.44792 30.2188 4.5625C30.5521 4.67188 30.8411 4.84635 31.0859 5.08594C31.3307 5.32552 31.5208 5.63281 31.6562 6.00781C31.7917 6.38281 31.8594 6.83594 31.8594 7.36719V13H30.4141V7.4375C30.4141 6.99479 30.3385 6.64062 30.1875 6.375C30.0417 6.10938 29.8333 5.91667 29.5625 5.79688C29.2917 5.67188 28.974 5.60938 28.6094 5.60938C28.1823 5.60938 27.8255 5.6849 27.5391 5.83594C27.2526 5.98698 27.0234 6.19531 26.8516 6.46094C26.6797 6.72656 26.5547 7.03125 26.4766 7.375C26.4036 7.71354 26.3672 8.07292 26.3672 8.45312ZM31.8438 7.65625L30.875 7.95312C30.8802 7.48958 30.9557 7.04427 31.1016 6.61719C31.2526 6.1901 31.4688 5.8099 31.75 5.47656C32.0365 5.14323 32.388 4.88021 32.8047 4.6875C33.2214 4.48958 33.6979 4.39062 34.2344 4.39062C34.6875 4.39062 35.0885 4.45052 35.4375 4.57031C35.7917 4.6901 36.0885 4.875 36.3281 5.125C36.5729 5.36979 36.7578 5.6849 36.8828 6.07031C37.0078 6.45573 37.0703 6.91406 37.0703 7.44531V13H35.6172V7.42969C35.6172 6.95573 35.5417 6.58854 35.3906 6.32812C35.2448 6.0625 35.0365 5.8776 34.7656 5.77344C34.5 5.66406 34.1823 5.60938 33.8125 5.60938C33.4948 5.60938 33.2135 5.66406 32.9688 5.77344C32.724 5.88281 32.5182 6.03385 32.3516 6.22656C32.1849 6.41406 32.0573 6.63021 31.9688 6.875C31.8854 7.11979 31.8438 7.38021 31.8438 7.65625ZM42.7656 13.1562C42.1771 13.1562 41.6432 13.0573 41.1641 12.8594C40.6901 12.6562 40.2812 12.3724 39.9375 12.0078C39.599 11.6432 39.3385 11.2109 39.1562 10.7109C38.974 10.2109 38.8828 9.66406 38.8828 9.07031V8.74219C38.8828 8.05469 38.9844 7.44271 39.1875 6.90625C39.3906 6.36458 39.6667 5.90625 40.0156 5.53125C40.3646 5.15625 40.7604 4.8724 41.2031 4.67969C41.6458 4.48698 42.1042 4.39062 42.5781 4.39062C43.1823 4.39062 43.7031 4.49479 44.1406 4.70312C44.5833 4.91146 44.9453 5.20312 45.2266 5.57812C45.5078 5.94792 45.7161 6.38542 45.8516 6.89062C45.987 7.39062 46.0547 7.9375 46.0547 8.53125V9.17969H39.7422V8H44.6094V7.89062C44.5885 7.51562 44.5104 7.15104 44.375 6.79688C44.2448 6.44271 44.0365 6.15104 43.75 5.92188C43.4635 5.69271 43.0729 5.57812 42.5781 5.57812C42.25 5.57812 41.9479 5.64844 41.6719 5.78906C41.3958 5.92448 41.1589 6.1276 40.9609 6.39844C40.763 6.66927 40.6094 7 40.5 7.39062C40.3906 7.78125 40.3359 8.23177 40.3359 8.74219V9.07031C40.3359 9.47135 40.3906 9.84896 40.5 10.2031C40.6146 10.5521 40.7786 10.8594 40.9922 11.125C41.2109 11.3906 41.474 11.599 41.7812 11.75C42.0938 11.901 42.4479 11.9766 42.8438 11.9766C43.3542 11.9766 43.7865 11.8724 44.1406 11.6641C44.4948 11.4557 44.8047 11.1771 45.0703 10.8281L45.9453 11.5234C45.763 11.7995 45.5312 12.0625 45.25 12.3125C44.9688 12.5625 44.6224 12.7656 44.2109 12.9219C43.8047 13.0781 43.3229 13.1562 42.7656 13.1562ZM47.6797 12.2344C47.6797 11.9896 47.7552 11.7839 47.9062 11.6172C48.0625 11.4453 48.2865 11.3594 48.5781 11.3594C48.8698 11.3594 49.0911 11.4453 49.2422 11.6172C49.3984 11.7839 49.4766 11.9896 49.4766 12.2344C49.4766 12.474 49.3984 12.6771 49.2422 12.8438C49.0911 13.0104 48.8698 13.0938 48.5781 13.0938C48.2865 13.0938 48.0625 13.0104 47.9062 12.8438C47.7552 12.6771 47.6797 12.474 47.6797 12.2344ZM47.6875 5.33594C47.6875 5.09115 47.763 4.88542 47.9141 4.71875C48.0703 4.54688 48.2943 4.46094 48.5859 4.46094C48.8776 4.46094 49.099 4.54688 49.25 4.71875C49.4062 4.88542 49.4844 5.09115 49.4844 5.33594C49.4844 5.57552 49.4062 5.77865 49.25 5.94531C49.099 6.11198 48.8776 6.19531 48.5859 6.19531C48.2943 6.19531 48.0703 6.11198 47.9141 5.94531C47.763 5.77865 47.6875 5.57552 47.6875 5.33594Z" fill="#777777"/>
<g filter="url(#filter1_d_32_92)">
<rect x="4" y="75" width="186" height="32" rx="6" fill="#F0F0F0"/>
<rect x="4.5" y="75.5" width="185" height="31" rx="5.5" stroke="#417880"/>
</g>
<path d="M17.8008 87.4336V88.8203H12.0879V87.4336H17.8008ZM14.0215 84.8652H15.8281V95.3828C15.8281 95.7409 15.8835 96.0111 15.9941 96.1934C16.1048 96.3757 16.248 96.4961 16.4238 96.5547C16.5996 96.6133 16.7884 96.6426 16.9902 96.6426C17.14 96.6426 17.2962 96.6296 17.459 96.6035C17.6283 96.571 17.7552 96.5449 17.8398 96.5254L17.8496 98C17.7064 98.0456 17.5176 98.0879 17.2832 98.127C17.0553 98.1725 16.7786 98.1953 16.4531 98.1953C16.0104 98.1953 15.6035 98.1074 15.2324 97.9316C14.8613 97.7559 14.5651 97.4629 14.3438 97.0527C14.1289 96.6361 14.0215 96.0762 14.0215 95.373V84.8652ZM19.2461 92.834V92.6094C19.2461 91.8477 19.3568 91.1413 19.5781 90.4902C19.7995 89.8327 20.1185 89.263 20.5352 88.7812C20.9518 88.293 21.4564 87.9154 22.0488 87.6484C22.6413 87.375 23.3053 87.2383 24.041 87.2383C24.7832 87.2383 25.4505 87.375 26.043 87.6484C26.6419 87.9154 27.1497 88.293 27.5664 88.7812C27.9896 89.263 28.3118 89.8327 28.5332 90.4902C28.7546 91.1413 28.8652 91.8477 28.8652 92.6094V92.834C28.8652 93.5957 28.7546 94.3021 28.5332 94.9531C28.3118 95.6042 27.9896 96.1738 27.5664 96.6621C27.1497 97.1439 26.6452 97.5215 26.0527 97.7949C25.4668 98.0618 24.8027 98.1953 24.0605 98.1953C23.3184 98.1953 22.651 98.0618 22.0586 97.7949C21.4661 97.5215 20.9583 97.1439 20.5352 96.6621C20.1185 96.1738 19.7995 95.6042 19.5781 94.9531C19.3568 94.3021 19.2461 93.5957 19.2461 92.834ZM21.0527 92.6094V92.834C21.0527 93.3613 21.1146 93.8594 21.2383 94.3281C21.362 94.7904 21.5475 95.2005 21.7949 95.5586C22.0488 95.9167 22.3646 96.1999 22.7422 96.4082C23.1198 96.61 23.5592 96.7109 24.0605 96.7109C24.5553 96.7109 24.9883 96.61 25.3594 96.4082C25.737 96.1999 26.0495 95.9167 26.2969 95.5586C26.5443 95.2005 26.7298 94.7904 26.8535 94.3281C26.9837 93.8594 27.0488 93.3613 27.0488 92.834V92.6094C27.0488 92.0885 26.9837 91.597 26.8535 91.1348C26.7298 90.666 26.541 90.2526 26.2871 89.8945C26.0397 89.5299 25.7272 89.2435 25.3496 89.0352C24.9785 88.8268 24.5423 88.7227 24.041 88.7227C23.5462 88.7227 23.11 88.8268 22.7324 89.0352C22.3613 89.2435 22.0488 89.5299 21.7949 89.8945C21.5475 90.2526 21.362 90.666 21.2383 91.1348C21.1146 91.597 21.0527 92.0885 21.0527 92.6094ZM32.9277 89.5332V98H31.1113V87.4336H32.8301L32.9277 89.5332ZM32.5566 92.3164L31.7168 92.2871C31.7233 91.5645 31.8177 90.8971 32 90.2852C32.1823 89.6667 32.4525 89.1296 32.8105 88.6738C33.1686 88.2181 33.6146 87.8665 34.1484 87.6191C34.6823 87.3652 35.3008 87.2383 36.0039 87.2383C36.4987 87.2383 36.9544 87.3099 37.3711 87.4531C37.7878 87.5898 38.1491 87.8079 38.4551 88.1074C38.7611 88.4069 38.9987 88.791 39.168 89.2598C39.3372 89.7285 39.4219 90.2949 39.4219 90.959V98H37.6152V91.0469C37.6152 90.4935 37.5208 90.0508 37.332 89.7188C37.1497 89.3867 36.8893 89.1458 36.5508 88.9961C36.2122 88.8398 35.8151 88.7617 35.3594 88.7617C34.8255 88.7617 34.3796 88.8561 34.0215 89.0449C33.6634 89.2337 33.377 89.4941 33.1621 89.8262C32.9473 90.1582 32.791 90.5391 32.6934 90.9688C32.6022 91.3919 32.5566 91.8411 32.5566 92.3164ZM39.4023 91.3203L38.1914 91.6914C38.1979 91.112 38.2923 90.5553 38.4746 90.0215C38.6634 89.4876 38.9336 89.0124 39.2852 88.5957C39.6432 88.179 40.0827 87.8503 40.6035 87.6094C41.1243 87.362 41.7201 87.2383 42.3906 87.2383C42.957 87.2383 43.4583 87.3132 43.8945 87.4629C44.3372 87.6126 44.7083 87.8438 45.0078 88.1562C45.3138 88.4622 45.5449 88.8561 45.7012 89.3379C45.8574 89.8197 45.9355 90.3926 45.9355 91.0566V98H44.1191V91.0371C44.1191 90.4447 44.0247 89.9857 43.8359 89.6602C43.6536 89.3281 43.3932 89.097 43.0547 88.9668C42.7227 88.8301 42.3255 88.7617 41.8633 88.7617C41.4661 88.7617 41.1146 88.8301 40.8086 88.9668C40.5026 89.1035 40.2454 89.2923 40.0371 89.5332C39.8288 89.7676 39.6693 90.0378 39.5586 90.3438C39.4544 90.6497 39.4023 90.9753 39.4023 91.3203ZM54.9004 96.1934V90.7539C54.9004 90.3372 54.8158 89.9759 54.6465 89.6699C54.4837 89.3574 54.2363 89.1165 53.9043 88.9473C53.5723 88.778 53.1621 88.6934 52.6738 88.6934C52.2181 88.6934 51.8177 88.7715 51.4727 88.9277C51.1341 89.084 50.8672 89.2891 50.6719 89.543C50.4831 89.7969 50.3887 90.0703 50.3887 90.3633H48.582C48.582 89.9857 48.6797 89.6113 48.875 89.2402C49.0703 88.8691 49.3503 88.5339 49.7148 88.2344C50.0859 87.9284 50.5286 87.6875 51.043 87.5117C51.5638 87.3294 52.1432 87.2383 52.7812 87.2383C53.5495 87.2383 54.2266 87.3685 54.8125 87.6289C55.4049 87.8893 55.8672 88.2832 56.1992 88.8105C56.5378 89.3314 56.707 89.9857 56.707 90.7734V95.6953C56.707 96.0469 56.7363 96.4212 56.7949 96.8184C56.86 97.2155 56.9544 97.5573 57.0781 97.8438V98H55.1934C55.1022 97.7917 55.0306 97.515 54.9785 97.1699C54.9264 96.8184 54.9004 96.4928 54.9004 96.1934ZM55.2129 91.5938L55.2324 92.8633H53.4062C52.8919 92.8633 52.4329 92.9056 52.0293 92.9902C51.6257 93.0684 51.2871 93.1888 51.0137 93.3516C50.7402 93.5143 50.5319 93.7194 50.3887 93.9668C50.2454 94.2077 50.1738 94.4909 50.1738 94.8164C50.1738 95.1484 50.2487 95.4512 50.3984 95.7246C50.5482 95.998 50.7728 96.2161 51.0723 96.3789C51.3783 96.5352 51.7526 96.6133 52.1953 96.6133C52.7487 96.6133 53.237 96.4961 53.6602 96.2617C54.0833 96.0273 54.4186 95.7409 54.666 95.4023C54.9199 95.0638 55.0566 94.735 55.0762 94.416L55.8477 95.2852C55.8021 95.5586 55.6784 95.8613 55.4766 96.1934C55.2747 96.5254 55.0046 96.8444 54.666 97.1504C54.334 97.4499 53.9368 97.7005 53.4746 97.9023C53.0189 98.0977 52.5046 98.1953 51.9316 98.1953C51.2155 98.1953 50.5872 98.0553 50.0469 97.7754C49.513 97.4954 49.0964 97.1211 48.7969 96.6523C48.5039 96.1771 48.3574 95.6465 48.3574 95.0605C48.3574 94.4941 48.4681 93.9961 48.6895 93.5664C48.9108 93.1302 49.2298 92.7689 49.6465 92.4824C50.0632 92.1895 50.5645 91.9681 51.1504 91.8184C51.7363 91.6686 52.3906 91.5938 53.1133 91.5938H55.2129ZM63.9727 87.4336V88.8203H58.2598V87.4336H63.9727ZM60.1934 84.8652H62V95.3828C62 95.7409 62.0553 96.0111 62.166 96.1934C62.2767 96.3757 62.4199 96.4961 62.5957 96.5547C62.7715 96.6133 62.9603 96.6426 63.1621 96.6426C63.3118 96.6426 63.4681 96.6296 63.6309 96.6035C63.8001 96.571 63.9271 96.5449 64.0117 96.5254L64.0215 98C63.8783 98.0456 63.6895 98.0879 63.4551 98.127C63.2272 98.1725 62.9505 98.1953 62.625 98.1953C62.1823 98.1953 61.7754 98.1074 61.4043 97.9316C61.0332 97.7559 60.737 97.4629 60.5156 97.0527C60.3008 96.6361 60.1934 96.0762 60.1934 95.373V84.8652ZM65.418 92.834V92.6094C65.418 91.8477 65.5286 91.1413 65.75 90.4902C65.9714 89.8327 66.2904 89.263 66.707 88.7812C67.1237 88.293 67.6283 87.9154 68.2207 87.6484C68.8132 87.375 69.4772 87.2383 70.2129 87.2383C70.9551 87.2383 71.6224 87.375 72.2148 87.6484C72.8138 87.9154 73.3216 88.293 73.7383 88.7812C74.1615 89.263 74.4837 89.8327 74.7051 90.4902C74.9264 91.1413 75.0371 91.8477 75.0371 92.6094V92.834C75.0371 93.5957 74.9264 94.3021 74.7051 94.9531C74.4837 95.6042 74.1615 96.1738 73.7383 96.6621C73.3216 97.1439 72.8171 97.5215 72.2246 97.7949C71.6387 98.0618 70.9746 98.1953 70.2324 98.1953C69.4902 98.1953 68.8229 98.0618 68.2305 97.7949C67.638 97.5215 67.1302 97.1439 66.707 96.6621C66.2904 96.1738 65.9714 95.6042 65.75 94.9531C65.5286 94.3021 65.418 93.5957 65.418 92.834ZM67.2246 92.6094V92.834C67.2246 93.3613 67.2865 93.8594 67.4102 94.3281C67.5339 94.7904 67.7194 95.2005 67.9668 95.5586C68.2207 95.9167 68.5365 96.1999 68.9141 96.4082C69.2917 96.61 69.7311 96.7109 70.2324 96.7109C70.7272 96.7109 71.1602 96.61 71.5312 96.4082C71.9089 96.1999 72.2214 95.9167 72.4688 95.5586C72.7161 95.2005 72.9017 94.7904 73.0254 94.3281C73.1556 93.8594 73.2207 93.3613 73.2207 92.834V92.6094C73.2207 92.0885 73.1556 91.597 73.0254 91.1348C72.9017 90.666 72.7129 90.2526 72.459 89.8945C72.2116 89.5299 71.8991 89.2435 71.5215 89.0352C71.1504 88.8268 70.7142 88.7227 70.2129 88.7227C69.7181 88.7227 69.2819 88.8268 68.9043 89.0352C68.5332 89.2435 68.2207 89.5299 67.9668 89.8945C67.7194 90.2526 67.5339 90.666 67.4102 91.1348C67.2865 91.597 67.2246 92.0885 67.2246 92.6094ZM81.6875 98.1953C80.9518 98.1953 80.2845 98.0716 79.6855 97.8242C79.0931 97.5703 78.582 97.2155 78.1523 96.7598C77.7292 96.304 77.4036 95.7637 77.1758 95.1387C76.9479 94.5137 76.834 93.8301 76.834 93.0879V92.6777C76.834 91.8184 76.9609 91.0534 77.2148 90.3828C77.4688 89.7057 77.8138 89.1328 78.25 88.6641C78.6862 88.1953 79.181 87.8405 79.7344 87.5996C80.2878 87.3587 80.8607 87.2383 81.4531 87.2383C82.2083 87.2383 82.8594 87.3685 83.4062 87.6289C83.9596 87.8893 84.4121 88.2539 84.7637 88.7227C85.1152 89.1849 85.3757 89.7318 85.5449 90.3633C85.7142 90.9883 85.7988 91.6719 85.7988 92.4141V93.2246H77.9082V91.75H83.9922V91.6133C83.9661 91.1445 83.8685 90.6888 83.6992 90.2461C83.5365 89.8034 83.276 89.4388 82.918 89.1523C82.5599 88.8659 82.0716 88.7227 81.4531 88.7227C81.043 88.7227 80.6654 88.8105 80.3203 88.9863C79.9753 89.1556 79.679 89.4095 79.4316 89.748C79.1842 90.0866 78.9922 90.5 78.8555 90.9883C78.7188 91.4766 78.6504 92.0397 78.6504 92.6777V93.0879C78.6504 93.5892 78.7188 94.0612 78.8555 94.5039C78.9987 94.9401 79.2038 95.3242 79.4707 95.6562C79.7441 95.9883 80.0729 96.2487 80.457 96.4375C80.8477 96.6263 81.2904 96.7207 81.7852 96.7207C82.4232 96.7207 82.9635 96.5905 83.4062 96.3301C83.849 96.0697 84.2363 95.7214 84.5684 95.2852L85.6621 96.1543C85.4342 96.4993 85.1445 96.8281 84.793 97.1406C84.4414 97.4531 84.0085 97.707 83.4941 97.9023C82.9863 98.0977 82.3841 98.1953 81.6875 98.1953ZM94.0605 95.1973C94.0605 94.9368 94.002 94.696 93.8848 94.4746C93.7741 94.2467 93.543 94.0417 93.1914 93.8594C92.8464 93.6706 92.3255 93.5078 91.6289 93.3711C91.043 93.2474 90.5124 93.1009 90.0371 92.9316C89.5684 92.7624 89.168 92.5573 88.8359 92.3164C88.5104 92.0755 88.2598 91.7923 88.084 91.4668C87.9082 91.1413 87.8203 90.7604 87.8203 90.3242C87.8203 89.9076 87.9115 89.5137 88.0938 89.1426C88.2826 88.7715 88.5462 88.4427 88.8848 88.1562C89.2298 87.8698 89.6432 87.6452 90.125 87.4824C90.6068 87.3197 91.1439 87.2383 91.7363 87.2383C92.5827 87.2383 93.3053 87.388 93.9043 87.6875C94.5033 87.987 94.9622 88.3874 95.2812 88.8887C95.6003 89.3835 95.7598 89.9336 95.7598 90.5391H93.9531C93.9531 90.2461 93.8652 89.9629 93.6895 89.6895C93.5202 89.4095 93.2695 89.1784 92.9375 88.9961C92.612 88.8138 92.2116 88.7227 91.7363 88.7227C91.235 88.7227 90.8281 88.8008 90.5156 88.957C90.2096 89.1068 89.985 89.2988 89.8418 89.5332C89.7051 89.7676 89.6367 90.015 89.6367 90.2754C89.6367 90.4707 89.6693 90.6465 89.7344 90.8027C89.806 90.9525 89.9297 91.0924 90.1055 91.2227C90.2812 91.3464 90.5286 91.4635 90.8477 91.5742C91.1667 91.6849 91.5736 91.7956 92.0684 91.9062C92.9342 92.1016 93.6471 92.3359 94.207 92.6094C94.7669 92.8828 95.1836 93.2181 95.457 93.6152C95.7305 94.0124 95.8672 94.4941 95.8672 95.0605C95.8672 95.5228 95.7695 95.946 95.5742 96.3301C95.3854 96.7142 95.1087 97.0462 94.7441 97.3262C94.3861 97.5996 93.9564 97.8145 93.4551 97.9707C92.9603 98.1204 92.4036 98.1953 91.7852 98.1953C90.8542 98.1953 90.0664 98.0293 89.4219 97.6973C88.7773 97.3652 88.2891 96.9355 87.957 96.4082C87.625 95.8809 87.459 95.3242 87.459 94.7383H89.2754C89.3014 95.2331 89.4447 95.627 89.7051 95.9199C89.9655 96.2064 90.2845 96.4115 90.6621 96.5352C91.0397 96.6523 91.4141 96.7109 91.7852 96.7109C92.2799 96.7109 92.6934 96.6458 93.0254 96.5156C93.3639 96.3854 93.6211 96.2064 93.7969 95.9785C93.9727 95.7507 94.0605 95.4902 94.0605 95.1973ZM99.8809 95.8516V97.3066C99.8809 97.8991 99.7311 98.5241 99.4316 99.1816C99.1322 99.8457 98.7122 100.399 98.1719 100.842L97.1465 100.129C97.3548 99.8424 97.5306 99.5495 97.6738 99.25C97.8171 98.957 97.9245 98.651 97.9961 98.332C98.0742 98.0195 98.1133 97.6875 98.1133 97.3359V95.8516H99.8809ZM106.668 92.834V92.6094C106.668 91.8477 106.779 91.1413 107 90.4902C107.221 89.8327 107.54 89.263 107.957 88.7812C108.374 88.293 108.878 87.9154 109.471 87.6484C110.063 87.375 110.727 87.2383 111.463 87.2383C112.205 87.2383 112.872 87.375 113.465 87.6484C114.064 87.9154 114.572 88.293 114.988 88.7812C115.411 89.263 115.734 89.8327 115.955 90.4902C116.176 91.1413 116.287 91.8477 116.287 92.6094V92.834C116.287 93.5957 116.176 94.3021 115.955 94.9531C115.734 95.6042 115.411 96.1738 114.988 96.6621C114.572 97.1439 114.067 97.5215 113.475 97.7949C112.889 98.0618 112.225 98.1953 111.482 98.1953C110.74 98.1953 110.073 98.0618 109.48 97.7949C108.888 97.5215 108.38 97.1439 107.957 96.6621C107.54 96.1738 107.221 95.6042 107 94.9531C106.779 94.3021 106.668 93.5957 106.668 92.834ZM108.475 92.6094V92.834C108.475 93.3613 108.536 93.8594 108.66 94.3281C108.784 94.7904 108.969 95.2005 109.217 95.5586C109.471 95.9167 109.786 96.1999 110.164 96.4082C110.542 96.61 110.981 96.7109 111.482 96.7109C111.977 96.7109 112.41 96.61 112.781 96.4082C113.159 96.1999 113.471 95.9167 113.719 95.5586C113.966 95.2005 114.152 94.7904 114.275 94.3281C114.406 93.8594 114.471 93.3613 114.471 92.834V92.6094C114.471 92.0885 114.406 91.597 114.275 91.1348C114.152 90.666 113.963 90.2526 113.709 89.8945C113.462 89.5299 113.149 89.2435 112.771 89.0352C112.4 88.8268 111.964 88.7227 111.463 88.7227C110.968 88.7227 110.532 88.8268 110.154 89.0352C109.783 89.2435 109.471 89.5299 109.217 89.8945C108.969 90.2526 108.784 90.666 108.66 91.1348C108.536 91.597 108.475 92.0885 108.475 92.6094ZM120.359 89.6895V98H118.553V87.4336H120.262L120.359 89.6895ZM119.93 92.3164L119.178 92.2871C119.184 91.5645 119.292 90.8971 119.5 90.2852C119.708 89.6667 120.001 89.1296 120.379 88.6738C120.757 88.2181 121.206 87.8665 121.727 87.6191C122.254 87.3652 122.837 87.2383 123.475 87.2383C123.995 87.2383 124.464 87.3099 124.881 87.4531C125.298 87.5898 125.652 87.8112 125.945 88.1172C126.245 88.4232 126.473 88.8203 126.629 89.3086C126.785 89.7904 126.863 90.3796 126.863 91.0762V98H125.047V91.0566C125.047 90.5033 124.965 90.0605 124.803 89.7285C124.64 89.39 124.402 89.1458 124.09 88.9961C123.777 88.8398 123.393 88.7617 122.938 88.7617C122.488 88.7617 122.078 88.8561 121.707 89.0449C121.342 89.2337 121.027 89.4941 120.76 89.8262C120.499 90.1582 120.294 90.5391 120.145 90.9688C120.001 91.3919 119.93 91.8411 119.93 92.3164ZM131.57 87.4336V98H129.754V87.4336H131.57ZM129.617 84.6309C129.617 84.3379 129.705 84.0905 129.881 83.8887C130.063 83.6868 130.33 83.5859 130.682 83.5859C131.027 83.5859 131.29 83.6868 131.473 83.8887C131.661 84.0905 131.756 84.3379 131.756 84.6309C131.756 84.9108 131.661 85.1517 131.473 85.3535C131.29 85.5488 131.027 85.6465 130.682 85.6465C130.33 85.6465 130.063 85.5488 129.881 85.3535C129.705 85.1517 129.617 84.9108 129.617 84.6309ZM133.992 92.834V92.6094C133.992 91.8477 134.103 91.1413 134.324 90.4902C134.546 89.8327 134.865 89.263 135.281 88.7812C135.698 88.293 136.202 87.9154 136.795 87.6484C137.387 87.375 138.051 87.2383 138.787 87.2383C139.529 87.2383 140.197 87.375 140.789 87.6484C141.388 87.9154 141.896 88.293 142.312 88.7812C142.736 89.263 143.058 89.8327 143.279 90.4902C143.501 91.1413 143.611 91.8477 143.611 92.6094V92.834C143.611 93.5957 143.501 94.3021 143.279 94.9531C143.058 95.6042 142.736 96.1738 142.312 96.6621C141.896 97.1439 141.391 97.5215 140.799 97.7949C140.213 98.0618 139.549 98.1953 138.807 98.1953C138.064 98.1953 137.397 98.0618 136.805 97.7949C136.212 97.5215 135.704 97.1439 135.281 96.6621C134.865 96.1738 134.546 95.6042 134.324 94.9531C134.103 94.3021 133.992 93.5957 133.992 92.834ZM135.799 92.6094V92.834C135.799 93.3613 135.861 93.8594 135.984 94.3281C136.108 94.7904 136.294 95.2005 136.541 95.5586C136.795 95.9167 137.111 96.1999 137.488 96.4082C137.866 96.61 138.305 96.7109 138.807 96.7109C139.301 96.7109 139.734 96.61 140.105 96.4082C140.483 96.1999 140.796 95.9167 141.043 95.5586C141.29 95.2005 141.476 94.7904 141.6 94.3281C141.73 93.8594 141.795 93.3613 141.795 92.834V92.6094C141.795 92.0885 141.73 91.597 141.6 91.1348C141.476 90.666 141.287 90.2526 141.033 89.8945C140.786 89.5299 140.473 89.2435 140.096 89.0352C139.725 88.8268 139.288 88.7227 138.787 88.7227C138.292 88.7227 137.856 88.8268 137.479 89.0352C137.107 89.2435 136.795 89.5299 136.541 89.8945C136.294 90.2526 136.108 90.666 135.984 91.1348C135.861 91.597 135.799 92.0885 135.799 92.6094ZM147.684 89.6895V98H145.877V87.4336H147.586L147.684 89.6895ZM147.254 92.3164L146.502 92.2871C146.508 91.5645 146.616 90.8971 146.824 90.2852C147.033 89.6667 147.326 89.1296 147.703 88.6738C148.081 88.2181 148.53 87.8665 149.051 87.6191C149.578 87.3652 150.161 87.2383 150.799 87.2383C151.32 87.2383 151.788 87.3099 152.205 87.4531C152.622 87.5898 152.977 87.8112 153.27 88.1172C153.569 88.4232 153.797 88.8203 153.953 89.3086C154.109 89.7904 154.188 90.3796 154.188 91.0762V98H152.371V91.0566C152.371 90.5033 152.29 90.0605 152.127 89.7285C151.964 89.39 151.727 89.1458 151.414 88.9961C151.102 88.8398 150.717 88.7617 150.262 88.7617C149.812 88.7617 149.402 88.8561 149.031 89.0449C148.667 89.2337 148.351 89.4941 148.084 89.8262C147.824 90.1582 147.618 90.5391 147.469 90.9688C147.326 91.3919 147.254 91.8411 147.254 92.3164ZM163.084 95.1973C163.084 94.9368 163.025 94.696 162.908 94.4746C162.798 94.2467 162.566 94.0417 162.215 93.8594C161.87 93.6706 161.349 93.5078 160.652 93.3711C160.066 93.2474 159.536 93.1009 159.061 92.9316C158.592 92.7624 158.191 92.5573 157.859 92.3164C157.534 92.0755 157.283 91.7923 157.107 91.4668C156.932 91.1413 156.844 90.7604 156.844 90.3242C156.844 89.9076 156.935 89.5137 157.117 89.1426C157.306 88.7715 157.57 88.4427 157.908 88.1562C158.253 87.8698 158.667 87.6452 159.148 87.4824C159.63 87.3197 160.167 87.2383 160.76 87.2383C161.606 87.2383 162.329 87.388 162.928 87.6875C163.527 87.987 163.986 88.3874 164.305 88.8887C164.624 89.3835 164.783 89.9336 164.783 90.5391H162.977C162.977 90.2461 162.889 89.9629 162.713 89.6895C162.544 89.4095 162.293 89.1784 161.961 88.9961C161.635 88.8138 161.235 88.7227 160.76 88.7227C160.258 88.7227 159.852 88.8008 159.539 88.957C159.233 89.1068 159.008 89.2988 158.865 89.5332C158.729 89.7676 158.66 90.015 158.66 90.2754C158.66 90.4707 158.693 90.6465 158.758 90.8027C158.829 90.9525 158.953 91.0924 159.129 91.2227C159.305 91.3464 159.552 91.4635 159.871 91.5742C160.19 91.6849 160.597 91.7956 161.092 91.9062C161.958 92.1016 162.671 92.3359 163.23 92.6094C163.79 92.8828 164.207 93.2181 164.48 93.6152C164.754 94.0124 164.891 94.4941 164.891 95.0605C164.891 95.5228 164.793 95.946 164.598 96.3301C164.409 96.7142 164.132 97.0462 163.768 97.3262C163.41 97.5996 162.98 97.8145 162.479 97.9707C161.984 98.1204 161.427 98.1953 160.809 98.1953C159.878 98.1953 159.09 98.0293 158.445 97.6973C157.801 97.3652 157.312 96.9355 156.98 96.4082C156.648 95.8809 156.482 95.3242 156.482 94.7383H158.299C158.325 95.2331 158.468 95.627 158.729 95.9199C158.989 96.2064 159.308 96.4115 159.686 96.5352C160.063 96.6523 160.438 96.7109 160.809 96.7109C161.303 96.7109 161.717 96.6458 162.049 96.5156C162.387 96.3854 162.645 96.2064 162.82 95.9785C162.996 95.7507 163.084 95.4902 163.084 95.1973Z" fill="#777777"/>
<path d="M6.9375 59.625V71H5.42969V59.625H6.9375ZM10.9062 64.3516V71H9.46094V62.5469H10.8281L10.9062 64.3516ZM10.5625 66.4531L9.96094 66.4297C9.96615 65.8516 10.0521 65.3177 10.2188 64.8281C10.3854 64.3333 10.6198 63.9036 10.9219 63.5391C11.224 63.1745 11.5833 62.8932 12 62.6953C12.4219 62.4922 12.888 62.3906 13.3984 62.3906C13.8151 62.3906 14.1901 62.4479 14.5234 62.5625C14.8568 62.6719 15.1406 62.849 15.375 63.0938C15.6146 63.3385 15.7969 63.6562 15.9219 64.0469C16.0469 64.4323 16.1094 64.9036 16.1094 65.4609V71H14.6562V65.4453C14.6562 65.0026 14.5911 64.6484 14.4609 64.3828C14.3307 64.112 14.1406 63.9167 13.8906 63.7969C13.6406 63.6719 13.3333 63.6094 12.9688 63.6094C12.6094 63.6094 12.2812 63.6849 11.9844 63.8359C11.6927 63.987 11.4401 64.1953 11.2266 64.4609C11.0182 64.7266 10.8542 65.0312 10.7344 65.375C10.6198 65.7135 10.5625 66.0729 10.5625 66.4531ZM23.7812 62.5469H25.0938V70.8203C25.0938 71.5651 24.9427 72.2005 24.6406 72.7266C24.3385 73.2526 23.9167 73.651 23.375 73.9219C22.8385 74.1979 22.2188 74.3359 21.5156 74.3359C21.224 74.3359 20.8802 74.2891 20.4844 74.1953C20.0938 74.1068 19.7083 73.9531 19.3281 73.7344C18.9531 73.5208 18.638 73.2318 18.3828 72.8672L19.1406 72.0078C19.4948 72.4349 19.8646 72.7318 20.25 72.8984C20.6406 73.0651 21.026 73.1484 21.4062 73.1484C21.8646 73.1484 22.2604 73.0625 22.5938 72.8906C22.9271 72.7188 23.1849 72.4635 23.3672 72.125C23.5547 71.7917 23.6484 71.3802 23.6484 70.8906V64.4062L23.7812 62.5469ZM17.9609 66.8672V66.7031C17.9609 66.0573 18.0365 65.4714 18.1875 64.9453C18.3438 64.4141 18.5651 63.9583 18.8516 63.5781C19.1432 63.1979 19.4948 62.9062 19.9062 62.7031C20.3177 62.4948 20.7812 62.3906 21.2969 62.3906C21.8281 62.3906 22.2917 62.4844 22.6875 62.6719C23.0885 62.8542 23.4271 63.1224 23.7031 63.4766C23.9844 63.8255 24.2057 64.2474 24.3672 64.7422C24.5286 65.237 24.6406 65.7969 24.7031 66.4219V67.1406C24.6458 67.7604 24.5339 68.3177 24.3672 68.8125C24.2057 69.3073 23.9844 69.7292 23.7031 70.0781C23.4271 70.4271 23.0885 70.6953 22.6875 70.8828C22.2865 71.0651 21.8177 71.1562 21.2812 71.1562C20.776 71.1562 20.3177 71.0495 19.9062 70.8359C19.5 70.6224 19.151 70.3229 18.8594 69.9375C18.5677 69.5521 18.3438 69.099 18.1875 68.5781C18.0365 68.0521 17.9609 67.4818 17.9609 66.8672ZM19.4062 66.7031V66.8672C19.4062 67.2891 19.4479 67.6849 19.5312 68.0547C19.6198 68.4245 19.7526 68.75 19.9297 69.0312C20.112 69.3125 20.3438 69.5339 20.625 69.6953C20.9062 69.8516 21.2422 69.9297 21.6328 69.9297C22.112 69.9297 22.5078 69.8281 22.8203 69.625C23.1328 69.4219 23.3802 69.1536 23.5625 68.8203C23.75 68.487 23.8958 68.125 24 67.7344V65.8516C23.9427 65.5651 23.8542 65.2891 23.7344 65.0234C23.6198 64.7526 23.4688 64.513 23.2812 64.3047C23.099 64.0911 22.8724 63.9219 22.6016 63.7969C22.3307 63.6719 22.013 63.6094 21.6484 63.6094C21.2526 63.6094 20.9115 63.6927 20.625 63.8594C20.3438 64.0208 20.112 64.2448 19.9297 64.5312C19.7526 64.8125 19.6198 65.1406 19.5312 65.5156C19.4479 65.8854 19.4062 66.2812 19.4062 66.7031ZM28.7344 63.875V71H27.2891V62.5469H28.6953L28.7344 63.875ZM31.375 62.5L31.3672 63.8438C31.2474 63.8177 31.1328 63.8021 31.0234 63.7969C30.9193 63.7865 30.7995 63.7812 30.6641 63.7812C30.3307 63.7812 30.0365 63.8333 29.7812 63.9375C29.526 64.0417 29.3099 64.1875 29.1328 64.375C28.9557 64.5625 28.8151 64.7865 28.7109 65.0469C28.612 65.3021 28.5469 65.5833 28.5156 65.8906L28.1094 66.125C28.1094 65.6146 28.1589 65.1354 28.2578 64.6875C28.362 64.2396 28.5208 63.8438 28.7344 63.5C28.9479 63.151 29.2188 62.8802 29.5469 62.6875C29.8802 62.4896 30.276 62.3906 30.7344 62.3906C30.8385 62.3906 30.9583 62.4036 31.0938 62.4297C31.2292 62.4505 31.3229 62.474 31.375 62.5ZM36.0625 71.1562C35.474 71.1562 34.9401 71.0573 34.4609 70.8594C33.987 70.6562 33.5781 70.3724 33.2344 70.0078C32.8958 69.6432 32.6354 69.2109 32.4531 68.7109C32.2708 68.2109 32.1797 67.6641 32.1797 67.0703V66.7422C32.1797 66.0547 32.2812 65.4427 32.4844 64.9062C32.6875 64.3646 32.9635 63.9062 33.3125 63.5312C33.6615 63.1562 34.0573 62.8724 34.5 62.6797C34.9427 62.487 35.401 62.3906 35.875 62.3906C36.4792 62.3906 37 62.4948 37.4375 62.7031C37.8802 62.9115 38.2422 63.2031 38.5234 63.5781C38.8047 63.9479 39.013 64.3854 39.1484 64.8906C39.2839 65.3906 39.3516 65.9375 39.3516 66.5312V67.1797H33.0391V66H37.9062V65.8906C37.8854 65.5156 37.8073 65.151 37.6719 64.7969C37.5417 64.4427 37.3333 64.151 37.0469 63.9219C36.7604 63.6927 36.3698 63.5781 35.875 63.5781C35.5469 63.5781 35.2448 63.6484 34.9688 63.7891C34.6927 63.9245 34.4557 64.1276 34.2578 64.3984C34.0599 64.6693 33.9062 65 33.7969 65.3906C33.6875 65.7812 33.6328 66.2318 33.6328 66.7422V67.0703C33.6328 67.4714 33.6875 67.849 33.7969 68.2031C33.9115 68.5521 34.0755 68.8594 34.2891 69.125C34.5078 69.3906 34.7708 69.599 35.0781 69.75C35.3906 69.901 35.7448 69.9766 36.1406 69.9766C36.651 69.9766 37.0833 69.8724 37.4375 69.6641C37.7917 69.4557 38.1016 69.1771 38.3672 68.8281L39.2422 69.5234C39.0599 69.7995 38.8281 70.0625 38.5469 70.3125C38.2656 70.5625 37.9193 70.7656 37.5078 70.9219C37.1016 71.0781 36.6198 71.1562 36.0625 71.1562ZM46.3672 69.3594V59H47.8203V71H46.4922L46.3672 69.3594ZM40.6797 66.8672V66.7031C40.6797 66.0573 40.7578 65.4714 40.9141 64.9453C41.0755 64.4141 41.3021 63.9583 41.5938 63.5781C41.8906 63.1979 42.2422 62.9062 42.6484 62.7031C43.0599 62.4948 43.5182 62.3906 44.0234 62.3906C44.5547 62.3906 45.0182 62.4844 45.4141 62.6719C45.8151 62.8542 46.1536 63.1224 46.4297 63.4766C46.7109 63.8255 46.9323 64.2474 47.0938 64.7422C47.2552 65.237 47.3672 65.7969 47.4297 66.4219V67.1406C47.3724 67.7604 47.2604 68.3177 47.0938 68.8125C46.9323 69.3073 46.7109 69.7292 46.4297 70.0781C46.1536 70.4271 45.8151 70.6953 45.4141 70.8828C45.013 71.0651 44.5443 71.1562 44.0078 71.1562C43.513 71.1562 43.0599 71.0495 42.6484 70.8359C42.2422 70.6224 41.8906 70.3229 41.5938 69.9375C41.3021 69.5521 41.0755 69.099 40.9141 68.5781C40.7578 68.0521 40.6797 67.4818 40.6797 66.8672ZM42.1328 66.7031V66.8672C42.1328 67.2891 42.1745 67.6849 42.2578 68.0547C42.3464 68.4245 42.4818 68.75 42.6641 69.0312C42.8464 69.3125 43.0781 69.5339 43.3594 69.6953C43.6406 69.8516 43.9766 69.9297 44.3672 69.9297C44.8464 69.9297 45.2396 69.8281 45.5469 69.625C45.8594 69.4219 46.1094 69.1536 46.2969 68.8203C46.4844 68.487 46.6302 68.125 46.7344 67.7344V65.8516C46.6719 65.5651 46.5807 65.2891 46.4609 65.0234C46.3464 64.7526 46.1953 64.513 46.0078 64.3047C45.8255 64.0911 45.599 63.9219 45.3281 63.7969C45.0625 63.6719 44.7474 63.6094 44.3828 63.6094C43.987 63.6094 43.6458 63.6927 43.3594 63.8594C43.0781 64.0208 42.8464 64.2448 42.6641 64.5312C42.4818 64.8125 42.3464 65.1406 42.2578 65.5156C42.1745 65.8854 42.1328 66.2812 42.1328 66.7031ZM51.6406 62.5469V71H50.1875V62.5469H51.6406ZM50.0781 60.3047C50.0781 60.0703 50.1484 59.8724 50.2891 59.7109C50.4349 59.5495 50.6484 59.4688 50.9297 59.4688C51.2057 59.4688 51.4167 59.5495 51.5625 59.7109C51.7135 59.8724 51.7891 60.0703 51.7891 60.3047C51.7891 60.5286 51.7135 60.7214 51.5625 60.8828C51.4167 61.0391 51.2057 61.1172 50.9297 61.1172C50.6484 61.1172 50.4349 61.0391 50.2891 60.8828C50.1484 60.7214 50.0781 60.5286 50.0781 60.3047ZM57.4688 71.1562C56.8802 71.1562 56.3464 71.0573 55.8672 70.8594C55.3932 70.6562 54.9844 70.3724 54.6406 70.0078C54.3021 69.6432 54.0417 69.2109 53.8594 68.7109C53.6771 68.2109 53.5859 67.6641 53.5859 67.0703V66.7422C53.5859 66.0547 53.6875 65.4427 53.8906 64.9062C54.0938 64.3646 54.3698 63.9062 54.7188 63.5312C55.0677 63.1562 55.4635 62.8724 55.9062 62.6797C56.349 62.487 56.8073 62.3906 57.2812 62.3906C57.8854 62.3906 58.4062 62.4948 58.8438 62.7031C59.2865 62.9115 59.6484 63.2031 59.9297 63.5781C60.2109 63.9479 60.4193 64.3854 60.5547 64.8906C60.6901 65.3906 60.7578 65.9375 60.7578 66.5312V67.1797H54.4453V66H59.3125V65.8906C59.2917 65.5156 59.2135 65.151 59.0781 64.7969C58.9479 64.4427 58.7396 64.151 58.4531 63.9219C58.1667 63.6927 57.776 63.5781 57.2812 63.5781C56.9531 63.5781 56.651 63.6484 56.375 63.7891C56.099 63.9245 55.862 64.1276 55.6641 64.3984C55.4661 64.6693 55.3125 65 55.2031 65.3906C55.0938 65.7812 55.0391 66.2318 55.0391 66.7422V67.0703C55.0391 67.4714 55.0938 67.849 55.2031 68.2031C55.3177 68.5521 55.4818 68.8594 55.6953 69.125C55.9141 69.3906 56.1771 69.599 56.4844 69.75C56.7969 69.901 57.151 69.9766 57.5469 69.9766C58.0573 69.9766 58.4896 69.8724 58.8438 69.6641C59.1979 69.4557 59.5078 69.1771 59.7734 68.8281L60.6484 69.5234C60.4661 69.7995 60.2344 70.0625 59.9531 70.3125C59.6719 70.5625 59.3255 70.7656 58.9141 70.9219C58.5078 71.0781 58.026 71.1562 57.4688 71.1562ZM63.8906 64.3516V71H62.4453V62.5469H63.8125L63.8906 64.3516ZM63.5469 66.4531L62.9453 66.4297C62.9505 65.8516 63.0365 65.3177 63.2031 64.8281C63.3698 64.3333 63.6042 63.9036 63.9062 63.5391C64.2083 63.1745 64.5677 62.8932 64.9844 62.6953C65.4062 62.4922 65.8724 62.3906 66.3828 62.3906C66.7995 62.3906 67.1745 62.4479 67.5078 62.5625C67.8411 62.6719 68.125 62.849 68.3594 63.0938C68.599 63.3385 68.7812 63.6562 68.9062 64.0469C69.0312 64.4323 69.0938 64.9036 69.0938 65.4609V71H67.6406V65.4453C67.6406 65.0026 67.5755 64.6484 67.4453 64.3828C67.3151 64.112 67.125 63.9167 66.875 63.7969C66.625 63.6719 66.3177 63.6094 65.9531 63.6094C65.5938 63.6094 65.2656 63.6849 64.9688 63.8359C64.6771 63.987 64.4245 64.1953 64.2109 64.4609C64.0026 64.7266 63.8385 65.0312 63.7188 65.375C63.6042 65.7135 63.5469 66.0729 63.5469 66.4531ZM74.8281 62.5469V63.6562H70.2578V62.5469H74.8281ZM71.8047 60.4922H73.25V68.9062C73.25 69.1927 73.2943 69.4089 73.3828 69.5547C73.4714 69.7005 73.5859 69.7969 73.7266 69.8438C73.8672 69.8906 74.0182 69.9141 74.1797 69.9141C74.2995 69.9141 74.4245 69.9036 74.5547 69.8828C74.6901 69.8568 74.7917 69.8359 74.8594 69.8203L74.8672 71C74.7526 71.0365 74.6016 71.0703 74.4141 71.1016C74.2318 71.138 74.0104 71.1562 73.75 71.1562C73.3958 71.1562 73.0703 71.0859 72.7734 70.9453C72.4766 70.8047 72.2396 70.5703 72.0625 70.2422C71.8906 69.9089 71.8047 69.4609 71.8047 68.8984V60.4922ZM81.4453 68.7578C81.4453 68.5495 81.3984 68.3568 81.3047 68.1797C81.2161 67.9974 81.0312 67.8333 80.75 67.6875C80.474 67.5365 80.0573 67.4062 79.5 67.2969C79.0312 67.1979 78.6068 67.0807 78.2266 66.9453C77.8516 66.8099 77.5312 66.6458 77.2656 66.4531C77.0052 66.2604 76.8047 66.0339 76.6641 65.7734C76.5234 65.513 76.4531 65.2083 76.4531 64.8594C76.4531 64.526 76.526 64.2109 76.6719 63.9141C76.8229 63.6172 77.0339 63.3542 77.3047 63.125C77.5807 62.8958 77.9115 62.7161 78.2969 62.5859C78.6823 62.4557 79.112 62.3906 79.5859 62.3906C80.263 62.3906 80.8411 62.5104 81.3203 62.75C81.7995 62.9896 82.1667 63.3099 82.4219 63.7109C82.6771 64.1068 82.8047 64.5469 82.8047 65.0312H81.3594C81.3594 64.7969 81.2891 64.5703 81.1484 64.3516C81.013 64.1276 80.8125 63.9427 80.5469 63.7969C80.2865 63.651 79.9661 63.5781 79.5859 63.5781C79.1849 63.5781 78.8594 63.6406 78.6094 63.7656C78.3646 63.8854 78.1849 64.0391 78.0703 64.2266C77.9609 64.4141 77.9062 64.612 77.9062 64.8203C77.9062 64.9766 77.9323 65.1172 77.9844 65.2422C78.0417 65.362 78.1406 65.474 78.2812 65.5781C78.4219 65.6771 78.6198 65.7708 78.875 65.8594C79.1302 65.9479 79.4557 66.0365 79.8516 66.125C80.5443 66.2812 81.1146 66.4688 81.5625 66.6875C82.0104 66.9062 82.3438 67.1745 82.5625 67.4922C82.7812 67.8099 82.8906 68.1953 82.8906 68.6484C82.8906 69.0182 82.8125 69.3568 82.6562 69.6641C82.5052 69.9714 82.2839 70.237 81.9922 70.4609C81.7057 70.6797 81.362 70.8516 80.9609 70.9766C80.5651 71.0964 80.1198 71.1562 79.625 71.1562C78.8802 71.1562 78.25 71.0234 77.7344 70.7578C77.2188 70.4922 76.8281 70.1484 76.5625 69.7266C76.2969 69.3047 76.1641 68.8594 76.1641 68.3906H77.6172C77.638 68.7865 77.7526 69.1016 77.9609 69.3359C78.1693 69.5651 78.4245 69.7292 78.7266 69.8281C79.0286 69.9219 79.3281 69.9688 79.625 69.9688C80.0208 69.9688 80.3516 69.9167 80.6172 69.8125C80.888 69.7083 81.0938 69.5651 81.2344 69.3828C81.375 69.2005 81.4453 68.9922 81.4453 68.7578ZM84.7266 70.2344C84.7266 69.9896 84.8021 69.7839 84.9531 69.6172C85.1094 69.4453 85.3333 69.3594 85.625 69.3594C85.9167 69.3594 86.138 69.4453 86.2891 69.6172C86.4453 69.7839 86.5234 69.9896 86.5234 70.2344C86.5234 70.474 86.4453 70.6771 86.2891 70.8438C86.138 71.0104 85.9167 71.0938 85.625 71.0938C85.3333 71.0938 85.1094 71.0104 84.9531 70.8438C84.8021 70.6771 84.7266 70.474 84.7266 70.2344ZM84.7344 63.3359C84.7344 63.0911 84.8099 62.8854 84.9609 62.7188C85.1172 62.5469 85.3411 62.4609 85.6328 62.4609C85.9245 62.4609 86.1458 62.5469 86.2969 62.7188C86.4531 62.8854 86.5312 63.0911 86.5312 63.3359C86.5312 63.5755 86.4531 63.7786 86.2969 63.9453C86.1458 64.112 85.9245 64.1953 85.6328 64.1953C85.3411 64.1953 85.1172 64.112 84.9609 63.9453C84.8099 63.7786 84.7344 63.5755 84.7344 63.3359Z" fill="#777777"/>
<rect x="165" y="80" width="1" height="23" fill="#777777"/>
</g>
<defs>
<filter id="filter0_d_32_92" x="0" y="16" width="194" height="40" filterUnits="userSpaceOnUse" color-interpolation-filters="sRGB">
<feFlood flood-opacity="0" result="BackgroundImageFix"/>
<feColorMatrix in="SourceAlpha" type="matrix" values="0 0 0 0 0 0 0 0 0 0 0 0 0 0 0 0 0 0 127 0" result="hardAlpha"/>
<feOffset dy="4"/>
<feGaussianBlur stdDeviation="2"/>
<feComposite in2="hardAlpha" operator="out"/>
<feColorMatrix type="matrix" values="0 0 0 0 0 0 0 0 0 0 0 0 0 0 0 0 0 0 0.25 0"/>
<feBlend mode="normal" in2="BackgroundImageFix" result="effect1_dropShadow_32_92"/>
<feBlend mode="normal" in="SourceGraphic" in2="effect1_dropShadow_32_92" result="shape"/>
</filter>
<filter id="filter1_d_32_92" x="0" y="75" width="194" height="40" filterUnits="userSpaceOnUse" color-interpolation-filters="sRGB">
<feFlood flood-opacity="0" result="BackgroundImageFix"/>
<feColorMatrix in="SourceAlpha" type="matrix" values="0 0 0 0 0 0 0 0 0 0 0 0 0 0 0 0 0 0 127 0" result="hardAlpha"/>
<feOffset dy="4"/>
<feGaussianBlur stdDeviation="2"/>
<feComposite in2="hardAlpha" operator="out"/>
<feColorMatrix type="matrix" values="0 0 0 0 0 0 0 0 0 0 0 0 0 0 0 0 0 0 0.25 0"/>
<feBlend mode="normal" in2="BackgroundImageFix" result="effect1_dropShadow_32_92"/>
<feBlend mode="normal" in="SourceGraphic" in2="effect1_dropShadow_32_92" result="shape"/>
</filter>
<clipPath id="clip0_32_92">
<rect width="193" height="114" fill="white"/>
</clipPath>
</defs>
</svg>
