<svg width="174" height="150" viewBox="0 0 174 150" fill="none" xmlns="http://www.w3.org/2000/svg">
<circle cx="34" cy="75" r="34" fill="#D4C1BD"/>
<path d="M34.0995 78.5442H35.3415C36.8784 78.5442 38.365 77.9963 39.5343 76.9988L40.6266 76.067C41.0909 75.6709 41.6812 75.4533 42.2915 75.4533V75.4533C43.202 75.4533 44.0443 75.9359 44.5047 76.7215L45.573 78.5442L47.7602 83.2087C47.9122 83.5329 48.0391 83.8683 48.1398 84.2119L49.0144 87.1965C49.135 87.608 49.1962 88.0346 49.1962 88.4634V88.4634C49.1962 90.9515 47.1793 92.9684 44.6913 92.9684H34.0995" stroke="black"/>
<path d="M34.9158 78.5662L33.5816 78.5378C32.0041 78.5041 30.4827 77.925 29.2759 76.899L28.1584 75.9489C27.6742 75.5372 27.0638 75.3049 26.4309 75.2914V75.2914C25.4763 75.271 24.5839 75.7494 24.0759 76.5538L22.9659 78.3113L20.6311 82.9198C20.4649 83.2478 20.3251 83.5886 20.2128 83.9391L19.2724 86.8739C19.1373 87.2954 19.0657 87.7351 19.0598 88.1787V88.1787C19.0268 90.6562 21.0081 92.7074 23.4853 92.7603L34.7236 93" stroke="black"/>
<circle cx="34.0995" cy="64.0645" r="9.56451" fill="#D4C1BD" stroke="black"/>
<circle cx="138" cy="75" r="34" fill="#FFCA84"/>
<path d="M138.099 78.5442H139.341C140.878 78.5442 142.365 77.9963 143.534 76.9988L144.627 76.067C145.091 75.6709 145.681 75.4533 146.291 75.4533V75.4533C147.202 75.4533 148.044 75.9359 148.505 76.7215L149.573 78.5442L151.76 83.2087C151.912 83.5329 152.039 83.8683 152.14 84.2119L153.014 87.1965C153.135 87.608 153.196 88.0346 153.196 88.4634V88.4634C153.196 90.9515 151.179 92.9684 148.691 92.9684H138.099" stroke="black"/>
<path d="M138.916 78.5662L137.582 78.5378C136.004 78.5041 134.483 77.925 133.276 76.899L132.158 75.9489C131.674 75.5372 131.064 75.3049 130.431 75.2914V75.2914C129.476 75.271 128.584 75.7494 128.076 76.5538L126.966 78.3113L124.631 82.9198C124.465 83.2478 124.325 83.5886 124.213 83.9391L123.272 86.8739C123.137 87.2954 123.066 87.7351 123.06 88.1787V88.1787C123.027 90.6562 125.008 92.7074 127.485 92.7603L138.724 93" stroke="black"/>
<circle cx="138.099" cy="64.0645" r="9.56451" fill="#FFCA84" stroke="black"/>
<path d="M136.085 124.637L137.233 125.602L137.233 125.602L136.085 124.637ZM143.994 116.87C143.923 116.045 143.195 115.434 142.37 115.506L128.921 116.675C128.095 116.747 127.485 117.474 127.556 118.299C127.628 119.125 128.355 119.736 129.181 119.664L141.136 118.624L142.175 130.579C142.247 131.405 142.974 132.015 143.799 131.944C144.625 131.872 145.236 131.145 145.164 130.319L143.994 116.87ZM36.1741 121.535L37.4734 120.785L37.4734 120.785L36.1741 121.535ZM72.5 144L72.1564 145.46L72.1939 145.469L72.2317 145.476L72.5 144ZM74.9131 144.439L74.6448 145.915L74.6448 145.915L74.9131 144.439ZM103 144L103.314 145.467L103.333 145.463L103.352 145.458L103 144ZM105.981 143.28L106.333 144.738L106.333 144.738L105.981 143.28ZM64 142L63.5257 143.423L63.5902 143.445L63.6564 143.46L64 142ZM53.8224 138.161L54.4933 136.82L54.4933 136.82L53.8224 138.161ZM126.94 133.338L126.034 132.143L126.034 132.143L126.94 133.338ZM137.233 125.602L143.649 117.965L141.351 116.035L134.936 123.672L137.233 125.602ZM33.7007 120.25L34.8748 122.285L37.4734 120.785L36.2993 118.75L33.7007 120.25ZM72.2317 145.476L74.6448 145.915L75.1815 142.963L72.7683 142.524L72.2317 145.476ZM103.352 145.458L106.333 144.738L105.629 141.822L102.648 142.542L103.352 145.458ZM58.8656 141.87L63.5257 143.423L64.4743 140.577L59.8143 139.024L58.8656 141.87ZM63.6564 143.46L72.1564 145.46L72.8436 142.54L64.3436 140.54L63.6564 143.46ZM34.8748 122.285C39.1479 129.691 45.5035 135.679 53.1516 139.503L54.4933 136.82C47.3711 133.258 41.4526 127.683 37.4734 120.785L34.8748 122.285ZM127.847 134.533C131.299 131.915 134.447 128.919 137.233 125.602L134.936 123.672C132.293 126.819 129.307 129.66 126.034 132.143L127.847 134.533ZM126.034 132.143C119.972 136.742 113.025 140.037 105.629 141.822L106.333 144.738C114.131 142.856 121.456 139.382 127.847 134.533L126.034 132.143ZM53.1516 139.503C54.9979 140.426 56.9074 141.217 58.8656 141.87L59.8143 139.024C57.9907 138.416 56.2126 137.679 54.4933 136.82L53.1516 139.503ZM74.6448 145.915C84.1387 147.641 93.8789 147.489 103.314 145.467L102.686 142.533C93.6338 144.473 84.2895 144.619 75.1815 142.963L74.6448 145.915Z" fill="#9B9B9B"/>
<path d="M41.4152 25.3628L40.2667 24.398L40.2667 24.398L41.4152 25.3628ZM33.5056 33.1299C33.5774 33.9553 34.3046 34.5661 35.1299 34.4944L48.5792 33.3249C49.4045 33.2531 50.0154 32.5259 49.9436 31.7006C49.8718 30.8752 49.1446 30.2644 48.3193 30.3361L36.3644 31.3757L35.3249 19.4208C35.2531 18.5955 34.5259 17.9846 33.7006 18.0564C32.8752 18.1282 32.2644 18.8554 32.3361 19.6807L33.5056 33.1299ZM121.576 10.7881L122.247 9.44643L122.247 9.44643L121.576 10.7881ZM121 10.5L121.671 9.15836L121.6 9.12315L121.527 9.09551L121 10.5ZM105 6L105.276 4.52567L105.268 4.5242L105 6ZM102.587 5.56125L102.855 4.08544L102.855 4.08544L102.587 5.56125ZM74.5 6L74.1857 4.5333L74.1668 4.53734L74.148 4.54188L74.5 6ZM71.5187 6.71962L71.1667 5.2615L71.1667 5.2615L71.5187 6.71962ZM120.621 10.3579L120.094 11.7624L120.094 11.7624L120.621 10.3579ZM50.5596 16.6617L51.4662 17.8567L51.4662 17.8567L50.5596 16.6617ZM40.2667 24.398L33.8514 32.0352L36.1486 33.9648L42.5638 26.3276L40.2667 24.398ZM122.247 9.44643L121.671 9.15836L120.329 11.8416L120.905 12.1297L122.247 9.44643ZM105.268 4.5242L102.855 4.08544L102.319 7.03705L104.732 7.4758L105.268 4.5242ZM74.148 4.54188L71.1667 5.2615L71.8707 8.17775L74.852 7.45812L74.148 4.54188ZM121.527 9.09551L121.148 8.95344L120.094 11.7624L120.473 11.9045L121.527 9.09551ZM143.799 29.7504C138.76 21.0164 131.266 13.9558 122.247 9.44643L120.905 12.1297C129.398 16.3761 136.456 23.0249 141.201 31.2496L143.799 29.7504ZM49.653 15.4666C46.2015 18.085 43.0532 21.0807 40.2667 24.398L42.5638 26.3276C45.2066 23.1814 48.1926 20.3401 51.4662 17.8567L49.653 15.4666ZM121.148 8.95344C115.995 7.02127 110.685 5.5398 105.276 4.52569L104.724 7.47431C109.962 8.45644 115.105 9.89119 120.094 11.7624L121.148 8.95344ZM51.4662 17.8567C57.5277 13.2583 64.4747 9.96299 71.8707 8.17775L71.1667 5.2615C63.3687 7.14379 56.0441 10.6182 49.653 15.4666L51.4662 17.8567ZM102.855 4.08544C93.3613 2.35928 83.6211 2.51144 74.1857 4.5333L74.8143 7.4667C83.8662 5.52702 93.2105 5.38105 102.319 7.03705L102.855 4.08544Z" fill="#9B9B9B"/>
</svg>
