<svg width="199" height="240" viewBox="0 0 199 240" fill="none" xmlns="http://www.w3.org/2000/svg">
<path d="M171.498 228.78H18.0891V236H171.498V228.78Z" fill="black"/>
<path d="M92.6149 223.799H96.6146H117.328H120.238H144.965L131.147 203.247L118.79 221.638L106.433 203.247L94.6147 220.834L82.7917 203.247L70.4394 221.638L58.079 203.247L44.2567 223.799H68.9877H71.8906H92.6149Z" fill="black"/>
<path d="M176.609 118.133C173.875 119.09 170.365 122.298 168.076 124.603C167.981 118.869 167.791 114.882 167.748 113.744H172.821V106.625H25.3309V113.744H31.0813C31.0266 114.904 30.8258 119.076 30.7453 125.039C28.4969 122.857 25.5172 120.294 23.1234 119.457C18.7039 117.912 4 119.457 4 119.457V125.358C4 125.358 18.4509 124.858 21.5583 126.648C24.6802 128.439 28.0249 143.598 30.6245 143.598C30.7195 143.598 30.8768 143.598 30.9825 143.598C31.6886 159.772 33.9767 177.301 40.2425 182.963H32.467V192.358H164.998V182.963H158.579C164.998 177.149 167.265 158.793 167.908 142.292C168.361 142.292 168.77 142.292 169.093 142.292C171.68 142.292 175.044 127.126 178.159 125.343C181.259 123.546 195.736 124.038 195.736 124.038V118.141C195.722 118.133 180.996 116.604 176.609 118.133ZM49.028 170.958C47.6272 168.217 46.249 164.897 45.2076 161.2C44.5714 159.408 44.3014 157.336 43.8697 155.342C43.3581 153.283 43.314 151.282 43.1567 149.339C42.9629 147.483 42.9484 145.221 43.0579 143.235C43.1127 141.22 43.1787 139.263 43.3361 137.377C43.5481 135.478 43.4644 133.665 43.8697 131.926C44.2057 130.215 44.5279 128.584 44.813 127.083C46.0483 121.058 48.0922 117.456 48.0922 117.456C48.0922 117.456 48.0702 118.482 48.2495 120.25C48.4213 122.031 48.4138 124.415 48.809 127.387C49.0645 130.331 49.2438 133.694 49.7523 137.333C50.0084 139.146 50.1582 141.001 50.3155 142.886C50.3815 144.815 50.7874 146.461 51.0429 148.57C51.5508 152.614 52.136 156.007 52.6514 159.618C53.1447 163.192 53.5947 166.563 53.993 169.434C54.7167 175.254 54.8885 179.495 54.8885 179.495C54.8885 179.495 51.8132 176.474 49.028 170.958Z" fill="black"/>
<path d="M67.1011 61.2394C67.96 62.8417 68.5453 63.2878 69.3023 64.3716L71.2468 66.6952C71.6049 67.4671 72.1901 68.091 72.4531 68.9533C73.0824 70.5631 73.7772 72.2703 73.9962 74.1477C74.6173 77.8378 74.5701 81.6982 74.4127 85.0619C73.9666 91.8037 73.3046 96.7224 73.3046 96.7224C73.3046 96.7224 76.9387 93.2357 79.8265 86.3304C80.547 84.6158 81.2487 82.6878 81.7055 80.5345C82.1693 78.3956 82.6268 76.0508 82.5205 73.5169C82.5205 71.023 82.2172 68.2614 81.2046 65.5827C80.8057 64.2088 79.9612 62.9471 79.318 61.6281C78.9449 60.9792 78.4408 60.4102 77.9984 59.8012L77.2892 58.8952L76.9381 58.4491L76.8537 58.3442C76.8978 58.3985 76.967 58.4715 77.1023 58.62L77.0627 58.5764L76.9381 58.406C76.3314 57.5793 75.1251 56.4162 74.9974 55.894C74.7047 55.2962 74.2951 54.7883 74.0175 53.8605C73.3593 52.2657 72.8477 50.4313 72.5884 48.5756C72.0183 44.8419 72.0944 40.974 72.2518 37.5891C72.6979 30.8397 73.2901 25.9136 73.2901 25.9136C73.2901 25.9136 69.6969 29.4371 66.8084 36.3206C65.3718 39.7498 64.0887 44.0414 64.0295 49.0654C64.0811 51.5519 64.1283 54.2923 65.1591 56.9822C65.497 58.2856 66.2754 59.7931 67.1011 61.2394ZM76.855 58.343C76.8626 58.3505 76.7273 58.1945 76.855 58.343V58.343Z" fill="black"/>
<path d="M88.4981 37.3339C89.357 38.9399 89.9423 39.3854 90.6993 40.4692L92.6438 42.7928C93.0056 43.5647 93.5871 44.1886 93.8508 45.0472C94.4788 46.6601 95.1773 48.3672 95.3931 50.2453C96.0143 53.9354 95.9708 57.7958 95.8135 61.1558C95.3636 67.8976 94.706 72.82 94.706 72.82C94.706 72.82 98.3357 69.3296 101.223 62.428C101.944 60.7134 102.646 58.7816 103.099 56.6284C103.566 54.4895 104.02 52.1446 103.917 49.6145C103.917 47.1206 103.61 44.3589 102.602 41.6766C102.206 40.3064 101.358 39.0447 100.715 37.722C100.342 37.0768 99.8378 36.504 99.3992 35.895L98.7013 35.0034L98.3495 34.5579L98.2514 34.4343C98.2986 34.4855 98.3646 34.5579 98.4999 34.7095L98.471 34.6627L98.3351 34.4924C97.7284 33.6769 96.5221 32.5026 96.3943 31.9841C96.1055 31.3826 95.6927 30.8859 95.4145 29.9575C94.7563 28.3514 94.2478 26.5282 93.9854 24.6726C93.4222 20.9282 93.499 17.0716 93.6563 13.686C94.0993 6.92986 94.699 2 94.699 2C94.699 2 91.1014 5.52721 88.213 12.4069C86.7694 15.8393 85.4863 20.1277 85.4278 25.1555C85.4863 27.642 85.5259 30.3824 86.5649 33.0685C86.9047 34.3726 87.6831 35.8807 88.4981 37.3339ZM98.252 34.4343C98.2671 34.4418 98.135 34.2927 98.252 34.4343V34.4343Z" fill="black"/>
<path d="M114.929 59.0138C115.792 60.6161 116.377 61.0616 117.138 62.146L119.083 64.4696C119.441 65.2414 120.025 65.8654 120.289 66.724C120.918 68.3369 121.612 70.0446 121.831 71.9221C122.446 75.6122 122.401 79.4726 122.249 82.8363C121.802 89.5744 121.144 94.4967 121.144 94.4967C121.144 94.4967 124.771 91.0101 127.666 84.1048C128.383 82.3902 129.084 80.4584 129.538 78.3052C130.006 76.17 130.459 73.8214 130.357 71.2913C130.357 68.7974 130.05 66.0357 129.04 63.3571C128.646 61.9832 127.798 60.7215 127.154 59.3987C126.774 58.7536 126.277 58.1808 125.838 57.5718L125.136 56.6839L124.785 56.2384L124.705 56.1261C124.748 56.1773 124.815 56.2528 124.946 56.4013L124.902 56.3395L124.771 56.1692C124.163 55.3537 122.958 54.1794 122.833 53.6609C122.541 53.0594 122.124 52.5627 121.853 51.6343C121.188 50.0282 120.684 48.205 120.42 46.3494C119.857 42.605 119.931 38.7484 120.092 35.3628C120.545 28.6135 121.13 23.6837 121.13 23.6837C121.13 23.6837 117.54 27.2109 114.652 34.0943C113.204 37.5236 111.925 41.8114 111.866 46.8392C111.925 49.3256 111.961 52.066 112.999 54.7522C113.335 56.0525 114.118 57.5568 114.929 59.0138ZM124.698 56.1105C124.705 56.1174 124.566 55.9689 124.698 56.1105V56.1105Z" fill="black"/>
</svg>
